<svg id="Layer_1" data-name="Layer 1" xmlns="http://www.w3.org/2000/svg" viewBox="0 0 1052.44 444.44"><defs><style>.cls-1{fill:#0e1844;}.cls-2{fill:#1565c0;}</style></defs><path class="cls-1" d="M267.29,259.22H246.48a2.5,2.5,0,0,1-2.19-3.71l10.41-18.85a2.5,2.5,0,0,1,4.38,0l10.4,18.85A2.5,2.5,0,0,1,267.29,259.22Z"/><path class="cls-1" d="M272.54,266.83H243.81a6.67,6.67,0,0,0-5.63,3.09l-47.65,75a6.67,6.67,0,0,0,5.64,10.25H317.06a6.67,6.67,0,0,0,5.73-10.07l-44.51-75A6.7,6.7,0,0,0,272.54,266.83ZM264,290.61l23.24,38.21a2.5,2.5,0,0,1-2.13,3.8H229.2a2.5,2.5,0,0,1-2.1-3.87L252,290.54a2.51,2.51,0,0,1,2.09-1.13h7.85A2.48,2.48,0,0,1,264,290.61Z"/><path class="cls-2" d="M220.35,227.2a6,6,0,0,0,1.5,1Zm-162,116v.69c0-.12,0-.23,0-.35S58.36,343.31,58.35,343.19Z"/><path class="cls-2" d="M223.78,203a19.36,19.36,0,0,0-18.21,19.72,18.31,18.31,0,0,0,1,5.46L140.7,330.69a3.34,3.34,0,0,1-2.81,1.53H67.12a19.16,19.16,0,0,0-15.36-7.87,19.18,19.18,0,1,0-.12,38.36,19.14,19.14,0,0,0,15.5-7.91H148.4a6.67,6.67,0,0,0,5.61-3.06l70.91-110.45A19.18,19.18,0,1,0,223.78,203ZM58.35,343.88a6.73,6.73,0,1,1,0-.69c0,.12,0,.22,0,.34S58.36,343.76,58.35,343.88Zm173-120.27a6.72,6.72,0,0,1-4.83,5,6.82,6.82,0,0,1-4.62-.43,6,6,0,0,1-1.5-1,6.72,6.72,0,1,1,11-3.59Z"/><path class="cls-2" d="M214.73,157.22l-36-60.8a6.66,6.66,0,0,0-11.47,0L49,295.83a6.67,6.67,0,0,0,5.74,10.07h68.83a6.67,6.67,0,0,0,5.66-3.13l33.21-53.07a19.14,19.14,0,1,0-19.28-11.77L115.5,282.15a2.5,2.5,0,0,1-2.12,1.17H87.05a2.5,2.5,0,0,1-2.15-3.78l85.9-144.89a2.51,2.51,0,0,1,4.31,0l19.83,33.43a18.55,18.55,0,0,0-1.83,7.69,19.18,19.18,0,1,0,21.62-18.55ZM160.9,223.87a6.73,6.73,0,0,1,6.44,8.66,6.66,6.66,0,0,1-5.37,4.7,7,7,0,0,1-3-.2,6.92,6.92,0,0,1-3-1.87,6.66,6.66,0,0,1-1.8-4.57A6.74,6.74,0,0,1,160.9,223.87Zm57.91-46a6.73,6.73,0,1,1-11.1-6.58,7,7,0,0,1,4.57-1.79A6.75,6.75,0,0,1,218.81,177.88Z"/><path class="cls-1" d="M416.87,202.12H383l-5.43,16H354.38l32.86-90.82h25.62l32.86,90.82H422.3Zm-5.7-17.07L399.92,151.8l-11.13,33.25Z"/><path class="cls-1" d="M458.07,162.41a31.86,31.86,0,0,1,12.81-12.94,38.34,38.34,0,0,1,18.82-4.53q13.59,0,22.71,7.12t12,20.05H500.83q-3-8.28-11.51-8.28a11.61,11.61,0,0,0-9.71,4.72Q476,173.27,476,182.07t3.62,13.52a11.61,11.61,0,0,0,9.71,4.72q8.54,0,11.51-8.28h23.55q-2.85,12.69-12,19.93T489.7,219.2a38.34,38.34,0,0,1-18.82-4.53,31.84,31.84,0,0,1-12.81-12.93,40.43,40.43,0,0,1-4.59-19.67A40.39,40.39,0,0,1,458.07,162.41Z"/><path class="cls-1" d="M538.54,162.41a31.86,31.86,0,0,1,12.81-12.94,38.35,38.35,0,0,1,18.83-4.53q13.58,0,22.7,7.12t12,20.05H581.3q-3-8.28-11.51-8.28a11.61,11.61,0,0,0-9.71,4.72q-3.62,4.72-3.62,13.52t3.62,13.52a11.61,11.61,0,0,0,9.71,4.72q8.54,0,11.51-8.28h23.55q-2.85,12.69-12,19.93t-22.64,7.24a38.35,38.35,0,0,1-18.83-4.53,31.84,31.84,0,0,1-12.81-12.93A40.43,40.43,0,0,1,534,182.07,40.39,40.39,0,0,1,538.54,162.41Z"/><path class="cls-1" d="M686.48,187.38H636.41q.52,6.72,4.34,10.28a13.24,13.24,0,0,0,9.38,3.56q8.28,0,11.51-7h23.55A32.38,32.38,0,0,1,678.66,207,32.76,32.76,0,0,1,666.82,216a38,38,0,0,1-15.92,3.23A38.65,38.65,0,0,1,632,214.67a32.15,32.15,0,0,1-12.94-12.93,39.9,39.9,0,0,1-4.66-19.67A40.39,40.39,0,0,1,619,162.41a31.79,31.79,0,0,1,12.88-12.94,41.9,41.9,0,0,1,37.64-.13,31.56,31.56,0,0,1,12.75,12.55,38.09,38.09,0,0,1,4.59,19A56.33,56.33,0,0,1,686.48,187.38Zm-22.25-12.29a11.36,11.36,0,0,0-3.88-9.06,14.3,14.3,0,0,0-9.7-3.36,14,14,0,0,0-9.38,3.23,14.39,14.39,0,0,0-4.73,9.19Z"/><path class="cls-1" d="M733.19,197.47,748.84,146h23.55l-25.62,72.19h-27.3L693.86,146h23.67Z"/><path class="cls-1" d="M783.71,162.41a31.26,31.26,0,0,1,11.45-12.94,29.88,29.88,0,0,1,16.17-4.53,27.78,27.78,0,0,1,13.39,3.11,22.8,22.8,0,0,1,8.86,8.15V146H855.7v72.19H833.58V208a23.93,23.93,0,0,1-9,8.15,27.78,27.78,0,0,1-13.39,3.1,29.35,29.35,0,0,1-16-4.59,31.64,31.64,0,0,1-11.45-13.07,43.43,43.43,0,0,1-4.21-19.6A43,43,0,0,1,783.71,162.41ZM829,169a15.54,15.54,0,0,0-22.38-.07q-4.61,4.73-4.6,13t4.6,13.13a15.39,15.39,0,0,0,22.38.07q4.59-4.78,4.59-13.07T829,169Z"/><path class="cls-1" d="M914.18,199.41v18.76H902.92q-12,0-18.75-5.89t-6.73-19.21V164.35h-8.8V146h8.8v-17.6h22.12V146h14.49v18.37H899.56v29c0,2.15.52,3.71,1.55,4.65s2.76,1.43,5.18,1.43Z"/><path class="cls-1" d="M996.33,187.38H946.26q.53,6.72,4.34,10.28a13.24,13.24,0,0,0,9.38,3.56q8.28,0,11.51-7H995A32.27,32.27,0,0,1,988.5,207,32.72,32.72,0,0,1,976.67,216a38,38,0,0,1-15.92,3.23,38.72,38.72,0,0,1-18.89-4.53,32.13,32.13,0,0,1-12.93-12.93,39.9,39.9,0,0,1-4.66-19.67,40.39,40.39,0,0,1,4.59-19.66,31.76,31.76,0,0,1,12.87-12.94,41.92,41.92,0,0,1,37.65-.13,31.62,31.62,0,0,1,12.75,12.55,38.09,38.09,0,0,1,4.59,19A56.33,56.33,0,0,1,996.33,187.38Zm-22.25-12.29A11.39,11.39,0,0,0,970.2,166a14.3,14.3,0,0,0-9.71-3.36,14,14,0,0,0-9.38,3.23,14.38,14.38,0,0,0-4.72,9.19Z"/><path class="cls-1" d="M389.66,263.66V271H377.51v38.21h-9.14V271H356.22v-7.38Z"/><path class="cls-1" d="M430.82,293.9H404.36A9,9,0,0,0,407.1,300a8.49,8.49,0,0,0,5.95,2.22,7.47,7.47,0,0,0,7.25-4.37h9.86a16.45,16.45,0,0,1-6,8.59,17.53,17.53,0,0,1-10.9,3.36,18.86,18.86,0,0,1-9.38-2.32A16.34,16.34,0,0,1,397.4,301a20.19,20.19,0,0,1-2.31-9.8,20.57,20.57,0,0,1,2.28-9.87,16,16,0,0,1,6.4-6.53,19.25,19.25,0,0,1,9.48-2.28,19,19,0,0,1,9.24,2.22,15.7,15.7,0,0,1,6.34,6.3,19.1,19.1,0,0,1,2.25,9.37A22,22,0,0,1,430.82,293.9Zm-9.21-6.14a7.3,7.3,0,0,0-2.55-5.65A9.06,9.06,0,0,0,413,280a8.25,8.25,0,0,0-5.71,2.06,9,9,0,0,0-2.84,5.71Z"/><path class="cls-1" d="M438.79,281.33a16.34,16.34,0,0,1,6.33-6.54,18.39,18.39,0,0,1,9.28-2.31,17.87,17.87,0,0,1,11.14,3.36,16.34,16.34,0,0,1,5.91,9.44h-9.87a7.17,7.17,0,0,0-2.64-3.69,7.71,7.71,0,0,0-4.61-1.34,7.54,7.54,0,0,0-6.2,2.84q-2.29,2.84-2.29,8.07t2.29,8a7.54,7.54,0,0,0,6.2,2.84q5.55,0,7.25-5h9.87a16.7,16.7,0,0,1-5.95,9.34,17.49,17.49,0,0,1-11.1,3.46,18.29,18.29,0,0,1-9.28-2.32,16.25,16.25,0,0,1-6.33-6.53,22.24,22.24,0,0,1,0-19.66Z"/><path class="cls-1" d="M507,274.34a12.37,12.37,0,0,1,5,5.29,18.14,18.14,0,0,1,1.8,8.39v21.23h-9.15v-20q0-4.31-2.16-6.63a7.63,7.63,0,0,0-5.87-2.32,7.85,7.85,0,0,0-6,2.32,9.3,9.3,0,0,0-2.19,6.63v20h-9.14V260.91h9.14v16.66a11.89,11.89,0,0,1,4.7-3.69,15.64,15.64,0,0,1,6.54-1.34A14.64,14.64,0,0,1,507,274.34Z"/><path class="cls-1" d="M554.08,276.62q4,4.1,4,11.4v21.23h-9.14v-20q0-4.31-2.16-6.63a7.64,7.64,0,0,0-5.88-2.32,7.84,7.84,0,0,0-6,2.32,9.3,9.3,0,0,0-2.19,6.63v20h-9.15V273.06h9.15v4.51a12.62,12.62,0,0,1,4.67-3.69,14.46,14.46,0,0,1,6.24-1.34A14,14,0,0,1,554.08,276.62Z"/><path class="cls-1" d="M574.52,307.52A16.69,16.69,0,0,1,568,301a19.67,19.67,0,0,1-2.38-9.8,19.19,19.19,0,0,1,2.45-9.8,17,17,0,0,1,6.69-6.57,20.57,20.57,0,0,1,18.94,0,17.06,17.06,0,0,1,6.7,6.57,19.29,19.29,0,0,1,2.45,9.8,18.93,18.93,0,0,1-2.51,9.8,17.42,17.42,0,0,1-6.8,6.56,19.7,19.7,0,0,1-9.57,2.32A19.05,19.05,0,0,1,574.52,307.52Zm14.08-6.86a8.8,8.8,0,0,0,3.5-3.62,12.22,12.22,0,0,0,1.3-5.88q0-5.16-2.71-7.94a8.89,8.89,0,0,0-6.63-2.78,8.7,8.7,0,0,0-6.56,2.78q-2.65,2.77-2.65,7.94c0,3.44.86,6.08,2.58,7.94a8.5,8.5,0,0,0,6.5,2.77A9.46,9.46,0,0,0,588.6,300.66Z"/><path class="cls-1" d="M619.79,260.91v48.34h-9.14V260.91Z"/><path class="cls-1" d="M636.58,307.52A16.56,16.56,0,0,1,630,301a19.68,19.68,0,0,1-2.39-9.8,19.29,19.29,0,0,1,2.45-9.8,17.06,17.06,0,0,1,6.7-6.57,20.57,20.57,0,0,1,18.94,0,17.13,17.13,0,0,1,6.7,6.57,19.29,19.29,0,0,1,2.45,9.8,18.84,18.84,0,0,1-2.52,9.8,17.4,17.4,0,0,1-6.79,6.56,19.75,19.75,0,0,1-9.57,2.32A19,19,0,0,1,636.58,307.52Zm14.08-6.86a8.72,8.72,0,0,0,3.49-3.62,12.22,12.22,0,0,0,1.31-5.88q0-5.16-2.71-7.94a8.93,8.93,0,0,0-6.63-2.78,8.73,8.73,0,0,0-6.57,2.78q-2.64,2.77-2.64,7.94c0,3.44.86,6.08,2.58,7.94a8.48,8.48,0,0,0,6.5,2.77A9.48,9.48,0,0,0,650.66,300.66Z"/><path class="cls-1" d="M694,274.08a13.1,13.1,0,0,1,4.83,4.14v-5.16H708v36.45a19.44,19.44,0,0,1-2,9,15.09,15.09,0,0,1-6.08,6.27,19.47,19.47,0,0,1-9.8,2.32q-7.7,0-12.64-3.6a13.31,13.31,0,0,1-5.58-9.8H681a6.76,6.76,0,0,0,3.1,4,10.82,10.82,0,0,0,5.78,1.47,9,9,0,0,0,6.47-2.39c1.65-1.59,2.48-4,2.48-7.22V303.9a13.94,13.94,0,0,1-4.86,4.24,14.58,14.58,0,0,1-7.09,1.7,15.5,15.5,0,0,1-8.36-2.35,16.39,16.39,0,0,1-6-6.63,21.27,21.27,0,0,1-2.19-9.83,21,21,0,0,1,2.19-9.74,16.1,16.1,0,0,1,5.94-6.53,15.9,15.9,0,0,1,8.4-2.28A15.16,15.16,0,0,1,694,274.08Zm3.53,11.36a9.29,9.29,0,0,0-3.53-3.66,9.52,9.52,0,0,0-4.77-1.27,9.19,9.19,0,0,0-8.2,4.87,11.38,11.38,0,0,0-1.34,5.65,11.72,11.72,0,0,0,1.34,5.71,9.58,9.58,0,0,0,3.53,3.76,9,9,0,0,0,4.67,1.31,9.43,9.43,0,0,0,4.77-1.28,9.29,9.29,0,0,0,3.53-3.66,13.21,13.21,0,0,0,0-11.43Z"/><path class="cls-1" d="M718.72,267.22a5.37,5.37,0,0,1,0-7.65,6,6,0,0,1,8,0,5.37,5.37,0,0,1,0,7.65,6,6,0,0,1-8,0Zm8.53,5.84v36.19H718.1V273.06Z"/><path class="cls-1" d="M770.75,293.9H744.3A9,9,0,0,0,747,300a8.45,8.45,0,0,0,5.94,2.22,7.46,7.46,0,0,0,7.25-4.37h9.87a16.56,16.56,0,0,1-6,8.59,17.56,17.56,0,0,1-10.91,3.36,18.82,18.82,0,0,1-9.37-2.32,16.22,16.22,0,0,1-6.47-6.56,20.08,20.08,0,0,1-2.32-9.8,20.46,20.46,0,0,1,2.29-9.87,15.92,15.92,0,0,1,6.4-6.53,20.57,20.57,0,0,1,18.71-.06,15.63,15.63,0,0,1,6.34,6.3,19.1,19.1,0,0,1,2.25,9.37A20.93,20.93,0,0,1,770.75,293.9Zm-9.21-6.14a7.23,7.23,0,0,0-2.55-5.65,9,9,0,0,0-6.07-2.12,8.27,8.27,0,0,0-5.72,2.06,9.06,9.06,0,0,0-2.84,5.71Z"/><path class="cls-1" d="M784.67,308.24a14,14,0,0,1-5.59-4.34,11,11,0,0,1-2.25-6.08H786a5,5,0,0,0,2.05,3.46,7.13,7.13,0,0,0,4.48,1.37,6.92,6.92,0,0,0,4.08-1,3.17,3.17,0,0,0,1.47-2.68,2.82,2.82,0,0,0-1.79-2.64,34.1,34.1,0,0,0-5.72-1.93,47.47,47.47,0,0,1-6.63-2,11.4,11.4,0,0,1-4.44-3.2,8.57,8.57,0,0,1-1.86-5.81,9.36,9.36,0,0,1,1.73-5.49,11.67,11.67,0,0,1,5-3.92,18.75,18.75,0,0,1,7.61-1.43q6.46,0,10.32,3.23a12,12,0,0,1,4.25,8.72H797.8A4.8,4.8,0,0,0,796,281a8.13,8.13,0,0,0-8.1-.36,2.93,2.93,0,0,0-1.34,2.55,3,3,0,0,0,1.83,2.78,28.32,28.32,0,0,0,5.68,1.92,49,49,0,0,1,6.47,2,11.32,11.32,0,0,1,4.41,3.23,8.87,8.87,0,0,1,1.92,5.78,9.54,9.54,0,0,1-1.73,5.62,11.47,11.47,0,0,1-5,3.89,20.82,20.82,0,0,1-15.51-.2Z"/></svg>